<svg width="37" height="36" viewBox="0 0 37 36" fill="none" xmlns="http://www.w3.org/2000/svg">
<path d="M2.80078 30.625C2.80078 30.625 4.50928 32.125 7.92553 32.125C11.3425 32.125 13.051 30.625 13.051 30.625C13.051 30.625 14.7588 32.125 18.1758 32.125C21.5928 32.125 23.3005 30.625 23.3005 30.625C23.3005 30.625 25.009 32.125 28.426 32.125C31.8423 32.125 33.5508 30.625 33.5508 30.625" stroke="#4DBB3E" stroke-width="2" stroke-miterlimit="10" stroke-linecap="round" stroke-linejoin="round"/>
<path d="M27.3359 11.25H29.0504" stroke="#0F0F10" stroke-width="2" stroke-miterlimit="10" stroke-linecap="round" stroke-linejoin="round"/>
<path d="M7.30078 11.25H9.01528" stroke="#0F0F10" stroke-width="2" stroke-miterlimit="10" stroke-linecap="round" stroke-linejoin="round"/>
<path d="M29.0508 24.7505H7.30078V15.7505C7.30078 14.9217 7.97203 14.2505 8.80078 14.2505H27.5508C28.3795 14.2505 29.0508 14.9217 29.0508 15.7505V24.7505Z" stroke="#0F0F10" stroke-width="2" stroke-miterlimit="10" stroke-linejoin="round"/>
<path d="M24.9258 19.874C25.7542 19.874 26.4258 19.2025 26.4258 18.374C26.4258 17.5456 25.7542 16.874 24.9258 16.874C24.0974 16.874 23.4258 17.5456 23.4258 18.374C23.4258 19.2025 24.0974 19.874 24.9258 19.874Z" fill="#0F0F10"/>
<path d="M11.4258 19.874C12.2542 19.874 12.9258 19.2025 12.9258 18.374C12.9258 17.5456 12.2542 16.874 11.4258 16.874C10.5974 16.874 9.92578 17.5456 9.92578 18.374C9.92578 19.2025 10.5974 19.874 11.4258 19.874Z" fill="#0F0F10"/>
<path d="M15.5508 21H20.8008" stroke="#0F0F10" stroke-width="1.5" stroke-miterlimit="10" stroke-linecap="round"/>
<path d="M10.6758 24.7495V26.2495C10.6758 26.872 10.1733 27.3745 9.55078 27.3745H7.30078C6.67828 27.3745 6.17578 26.872 6.17578 26.2495V24.7495H10.6758Z" fill="#0F0F10"/>
<path d="M30.1758 24.7495V26.2495C30.1758 26.872 29.6733 27.3745 29.0508 27.3745H26.8008C26.1783 27.3745 25.6758 26.872 25.6758 26.2495V24.7495H30.1758Z" fill="#0F0F10"/>
<path d="M27.578 13.7687L26.1485 8.52773C25.742 7.03598 24.3868 6.00098 22.841 6.00098H13.5065C11.9608 6.00098 10.6055 7.03598 10.199 8.52773L8.76953 13.7687" stroke="#0F0F10" stroke-width="2" stroke-miterlimit="10"/>
</svg>
