<svg width="37" height="36" viewBox="0 0 37 36" fill="none" xmlns="http://www.w3.org/2000/svg">
<path d="M15.457 11.2825C16.285 11.0185 17.167 10.876 18.082 10.876C22.8453 10.876 26.707 14.7377 26.707 19.501C26.707 21.6505 25.921 23.6162 24.6205 25.126" stroke="#4DBB3E" stroke-width="2" stroke-miterlimit="10" stroke-linecap="round" stroke-linejoin="round"/>
<path d="M11.543 25.124C10.2425 23.6135 9.45647 21.6478 9.45647 19.499C9.45647 18.584 9.59897 17.702 9.86297 16.874" stroke="#4DBB3E" stroke-width="2" stroke-miterlimit="10" stroke-linecap="round" stroke-linejoin="round"/>
<path d="M18.082 21.751C16.8394 21.751 15.832 20.7436 15.832 19.501C15.832 18.2583 16.8394 17.251 18.082 17.251C19.3247 17.251 20.332 18.2583 20.332 19.501C20.332 20.7436 19.3247 21.751 18.082 21.751Z" fill="#0F0F10"/>
<path d="M12.2695 13.6875L18.082 19.5" stroke="#0F0F10" stroke-width="2" stroke-miterlimit="10" stroke-linecap="round" stroke-linejoin="round"/>
<path d="M26.683 30.374H9.48178C6.27253 27.833 4.20703 23.9105 4.20703 19.499C4.20703 11.8363 10.4193 5.62402 18.082 5.62402C25.7448 5.62402 31.957 11.8363 31.957 19.499C31.957 23.9105 29.8915 27.833 26.683 30.374Z" stroke="#0F0F10" stroke-width="2" stroke-miterlimit="10" stroke-linecap="round" stroke-linejoin="round"/>
</svg>
