<svg width="36" height="36" viewBox="0 0 36 36" fill="none" xmlns="http://www.w3.org/2000/svg">
<path d="M27.1602 16.874H28.8747" stroke="#0F0F10" stroke-width="2" stroke-miterlimit="10" stroke-linecap="round" stroke-linejoin="round"/>
<path d="M7.125 16.874H8.8395" stroke="#0F0F10" stroke-width="2" stroke-miterlimit="10" stroke-linecap="round" stroke-linejoin="round"/>
<path d="M28.875 30.3745H7.125V21.3745C7.125 20.5458 7.79625 19.8745 8.625 19.8745H27.375C28.2038 19.8745 28.875 20.5458 28.875 21.3745V30.3745Z" stroke="#0F0F10" stroke-width="2" stroke-miterlimit="10" stroke-linejoin="round"/>
<path d="M24.75 25.5C25.5784 25.5 26.25 24.8284 26.25 24C26.25 23.1716 25.5784 22.5 24.75 22.5C23.9216 22.5 23.25 23.1716 23.25 24C23.25 24.8284 23.9216 25.5 24.75 25.5Z" fill="#0F0F10"/>
<path d="M11.25 25.5005C12.0784 25.5005 12.75 24.8289 12.75 24.0005C12.75 23.1721 12.0784 22.5005 11.25 22.5005C10.4216 22.5005 9.75 23.1721 9.75 24.0005C9.75 24.8289 10.4216 25.5005 11.25 25.5005Z" fill="#0F0F10"/>
<path d="M15.375 26.624H20.625" stroke="#0F0F10" stroke-width="1.5" stroke-miterlimit="10" stroke-linecap="round"/>
<path d="M10.5 30.376V31.876C10.5 32.4985 9.9975 33.001 9.375 33.001H7.125C6.5025 33.001 6 32.4985 6 31.876V30.376H10.5Z" fill="#0F0F10"/>
<path d="M30 30.376V31.876C30 32.4985 29.4975 33.001 28.875 33.001H26.625C26.0025 33.001 25.5 32.4985 25.5 31.876V30.376H30Z" fill="#0F0F10"/>
<path d="M27.4023 19.3928L25.9728 14.1517C25.5663 12.66 24.211 11.625 22.6653 11.625H13.3308C11.785 11.625 10.4297 12.66 10.0232 14.1517L8.59375 19.3928" stroke="#0F0F10" stroke-width="2" stroke-miterlimit="10"/>
<path d="M33.375 20.2503C33.225 20.2503 33.0825 20.2203 32.94 20.1678C32.805 20.1078 32.685 20.026 32.58 19.9203C32.37 19.7103 32.25 19.4253 32.25 19.1253C32.25 19.0495 32.2575 18.9753 32.2725 18.9078C32.2875 18.832 32.31 18.7653 32.3325 18.6978C32.3625 18.6303 32.4 18.5628 32.4375 18.5028C32.4825 18.4428 32.5275 18.3828 32.58 18.3303C33 17.9103 33.75 17.9103 34.17 18.3303C34.2225 18.3828 34.2675 18.4428 34.3125 18.5028C34.35 18.5628 34.3875 18.6303 34.4175 18.6978C34.44 18.7653 34.4625 18.8328 34.4775 18.9078C34.4925 18.9753 34.5 19.0495 34.5 19.1253C34.5 19.4245 34.38 19.7095 34.17 19.9203C33.96 20.1303 33.675 20.2503 33.375 20.2503ZM32.7525 15.9153C32.8575 15.9153 32.9625 15.9003 33.075 15.8703C33.6675 15.6978 34.0125 15.0678 33.8325 14.4753C33.66 13.8753 33.0375 13.5378 32.4375 13.7095C31.845 13.882 31.5 14.512 31.68 15.112C31.6725 15.1045 31.6725 15.1045 31.6725 15.1045C31.8225 15.6003 32.265 15.9153 32.7525 15.9153ZM3.2475 15.892C3.735 15.892 4.185 15.577 4.3275 15.0903C4.5075 14.4895 4.1625 13.8678 3.57 13.6878C2.97 13.5153 2.3475 13.8595 2.175 14.4528C1.995 15.0453 2.3325 15.6753 2.9325 15.8478C3.0375 15.8853 3.1425 15.892 3.2475 15.892ZM30.9375 11.9328C31.1475 11.9403 31.3575 11.8803 31.545 11.7603C32.07 11.4228 32.22 10.7253 31.8825 10.2078V10.2003C31.545 9.68354 30.8475 9.52604 30.33 9.86279C29.805 10.2003 29.655 10.8978 29.9925 11.4228C30.2025 11.7528 30.57 11.9328 30.9375 11.9328ZM5.07 11.9245C5.445 11.9245 5.805 11.737 6.0225 11.4078C6.3525 10.8828 6.21 10.1853 5.685 9.84779C5.16 9.51029 4.47 9.66029 4.125 10.1853C3.795 10.702 3.9375 11.4003 4.4625 11.7453C4.65 11.8645 4.86 11.9245 5.07 11.9245ZM28.0725 8.63279C28.3875 8.63279 28.695 8.49779 28.92 8.24279C29.325 7.77779 29.28 7.06529 28.8075 6.66029C28.335 6.24779 27.63 6.30029 27.2175 6.77204C26.8125 7.23704 26.865 7.94954 27.33 8.35454C27.5475 8.54279 27.81 8.63279 28.0725 8.63279ZM7.9425 8.61779C8.205 8.61779 8.4675 8.52779 8.6775 8.34779C9.15 7.93529 9.2025 7.23029 8.79 6.75779C8.385 6.29279 7.68 6.23279 7.2075 6.64529C6.735 7.05029 6.6825 7.76279 7.095 8.22779C7.3125 8.48954 7.6275 8.61779 7.9425 8.61779ZM24.39 6.26279C24.8175 6.26279 25.23 6.02279 25.4175 5.61029C25.6725 5.04029 25.425 4.37354 24.8625 4.11854C24.3 3.85529 23.625 4.10279 23.37 4.67204C23.115 5.23454 23.3625 5.90279 23.925 6.16454C24.075 6.23279 24.2325 6.26279 24.39 6.26279ZM11.625 6.25529C11.7825 6.25529 11.94 6.22529 12.09 6.15029C12.66 5.89454 12.9075 5.22779 12.645 4.66529C12.39 4.09529 11.7225 3.84779 11.16 4.10279C10.59 4.36529 10.3425 5.03279 10.5975 5.59529C10.7925 6.00779 11.1975 6.25529 11.625 6.25529ZM20.1975 5.03279C20.7525 5.03279 21.2325 4.62779 21.3075 4.06529C21.3975 3.45029 20.97 2.88029 20.355 2.79029C19.74 2.70779 19.17 3.12779 19.08 3.74354C18.9975 4.35779 19.425 4.92779 20.04 5.01779C20.0925 5.02529 20.145 5.03279 20.1975 5.03279ZM15.825 5.02529C15.8775 5.02529 15.93 5.02529 15.9825 5.01704C16.5975 4.92704 17.025 4.35704 16.935 3.74279C16.845 3.12779 16.2825 2.70029 15.6675 2.79029C15.0525 2.87279 14.6175 3.44279 14.7075 4.05779C14.79 4.62029 15.27 5.02529 15.825 5.02529ZM3.0525 20.1678C3.195 20.1078 3.315 20.026 3.42 19.9203C3.63 19.7095 3.75 19.4245 3.75 19.1253C3.75 19.0495 3.7425 18.9753 3.7275 18.9078C3.7125 18.832 3.69 18.7653 3.66 18.6978C3.6375 18.6303 3.6 18.5628 3.5625 18.5028C3.5175 18.4428 3.4725 18.3828 3.42 18.3303C3 17.9103 2.25 17.9103 1.83 18.3303C1.7775 18.3828 1.7325 18.4428 1.6875 18.5028C1.65 18.5628 1.6125 18.6303 1.59 18.6978C1.56 18.7653 1.5375 18.8328 1.5225 18.9078C1.5075 18.9753 1.5 19.0495 1.5 19.1253C1.5 19.4245 1.62 19.7095 1.83 19.9203C2.04 20.1303 2.325 20.2503 2.625 20.2503C2.775 20.2503 2.9175 20.2203 3.0525 20.1678Z" fill="#4DBB3E"/>
</svg>
